<?xml version="1.0" standalone="no"?>
<!DOCTYPE svg PUBLIC "-//W3C//DTD SVG 20010904//EN"
 "http://www.w3.org/TR/2001/REC-SVG-20010904/DTD/svg10.dtd">
<svg version="1.0" xmlns="http://www.w3.org/2000/svg"
 width="512.000000pt" height="512.000000pt" viewBox="0 0 512.000000 512.000000"
 preserveAspectRatio="xMidYMid meet">
<metadata>
Created by potrace 1.14, written by Peter Selinger 2001-2017
</metadata>
<g transform="translate(0.000000,512.000000) scale(0.100000,-0.100000)"
fill="#000000" stroke="none">
<path d="M2368 4955 c-1 -1 -32 -5 -68 -9 -78 -7 -241 -33 -290 -46 -19 -5
-46 -11 -60 -14 -117 -21 -371 -115 -539 -200 -675 -338 -1168 -961 -1342
-1695 -26 -108 -57 -301 -50 -305 3 -2 1149 -3 2546 -2 1766 1 2539 4 2538 11
-1 6 -4 34 -8 63 -5 48 -10 74 -35 197 -35 169 -110 384 -197 563 -193 400
-508 761 -882 1011 -78 52 -113 73 -235 141 -213 118 -574 233 -836 265 -30 4
-64 9 -75 12 -22 5 -461 13 -467 8z"/>
<path d="M1 2390 c0 -137 1 -140 22 -141 22 0 5033 0 5073 1 20 0 21 5 22 140
l2 140 -2559 0 -2560 0 0 -140z"/>
<path d="M33 2033 c-5 -13 -2 -34 22 -159 10 -49 22 -94 27 -101 7 -9 586 -12
2483 -12 l2474 1 20 91 c32 143 39 187 32 188 -3 1 -1142 2 -2530 3 -1910 1
-2525 -2 -2528 -11z"/>
<path d="M150 1544 c0 -17 74 -197 97 -236 l19 -32 2284 -1 c1257 -1 2291 1
2298 3 7 3 22 22 33 43 27 54 89 209 89 224 0 9 -534 12 -2410 12 -1921 0
-2410 -3 -2410 -13z"/>
<path d="M410 1012 c0 -9 186 -259 199 -267 5 -3 884 -5 1952 -5 l1943 0 21
22 c53 60 185 240 185 253 0 3 -967 5 -2150 5 -1182 0 -2150 -4 -2150 -8z"/>
<path d="M986 384 c73 -57 208 -148 292 -197 l63 -37 1215 0 1215 0 47 24 c76
39 305 193 367 248 5 4 -726 8 -1625 8 l-1633 0 59 -46z"/>
</g>
</svg>
